<svg xmlns="http://www.w3.org/2000/svg" xmlns:xlink="http://www.w3.org/1999/xlink" width="1000" zoomAndPan="magnify" viewBox="0 0 750 299.999988" height="400" preserveAspectRatio="xMidYMid meet" version="1.2"><defs><clipPath id="2bff3c2c16"><path d="M 127 39.332031 L 234.535156 39.332031 L 234.535156 259 L 127 259 Z M 127 39.332031 "/></clipPath><clipPath id="18abcdabcf"><path d="M 193.347656 39.960938 L 168.648438 39.960938 L 127.09375 149.445312 L 168.050781 258.925781 L 192.75 258.925781 L 234.304688 149.445312 Z M 193.347656 39.960938 "/></clipPath><clipPath id="b6ce2d20a2"><path d="M 0 0.839844 L 107.480469 0.839844 L 107.480469 219.960938 L 0 219.960938 Z M 0 0.839844 "/></clipPath><clipPath id="dfea128d90"><path d="M 66.347656 0.960938 L 41.648438 0.960938 L 0.09375 110.445312 L 41.050781 219.925781 L 65.75 219.925781 L 107.304688 110.445312 Z M 66.347656 0.960938 "/></clipPath><clipPath id="ee798a8465"><rect x="0" width="108" y="0" height="220"/></clipPath><clipPath id="49028f863f"><path d="M 19.289062 39.332031 L 127.929688 39.332031 L 127.929688 259 L 19.289062 259 Z M 19.289062 39.332031 "/></clipPath><clipPath id="fc231a3ec5"><path d="M 61.476562 39.960938 L 19.921875 149.445312 L 60.878906 258.925781 L 85.578125 258.925781 L 127.09375 149.445312 L 86.175781 39.960938 Z M 61.476562 39.960938 "/></clipPath><clipPath id="f65f088543"><path d="M 0.921875 0.839844 L 108.199219 0.839844 L 108.199219 219.960938 L 0.921875 219.960938 Z M 0.921875 0.839844 "/></clipPath><clipPath id="a10b89c373"><path d="M 42.476562 0.960938 L 0.921875 110.445312 L 41.878906 219.925781 L 66.578125 219.925781 L 108.09375 110.445312 L 67.175781 0.960938 Z M 42.476562 0.960938 "/></clipPath><clipPath id="9ca8a1fba9"><rect x="0" width="109" y="0" height="220"/></clipPath><clipPath id="2b640cdce2"><path d="M 238 40 L 335 40 L 335 138.832031 L 238 138.832031 Z M 238 40 "/></clipPath><clipPath id="36b98913e0"><path d="M 286.496094 64.304688 L 273.667969 100.398438 L 299.164062 100.398438 L 286.773438 64.304688 Z M 238.410156 138.449219 L 275.738281 40.039062 L 297.929688 40.039062 L 334.703125 138.410156 L 312.234375 138.410156 L 304.785156 116.496094 L 268.011719 116.496094 L 260.28125 138.410156 Z M 238.410156 138.449219 "/></clipPath><clipPath id="364c5b8f23"><path d="M 0.320312 0 L 96.800781 0 L 96.800781 98.480469 L 0.320312 98.480469 Z M 0.320312 0 "/></clipPath><clipPath id="e46dfd9dff"><path d="M 48.496094 24.304688 L 35.667969 60.398438 L 61.164062 60.398438 L 48.773438 24.304688 Z M 0.410156 98.449219 L 37.738281 0.0390625 L 59.929688 0.0390625 L 96.703125 98.410156 L 74.234375 98.410156 L 66.785156 76.496094 L 30.011719 76.496094 L 22.28125 98.410156 Z M 0.410156 98.449219 "/></clipPath><clipPath id="d70c3bad9c"><rect x="0" width="97" y="0" height="99"/></clipPath><clipPath id="2aa697ee3a"><path d="M 324 39.332031 L 398 39.332031 L 398 140.863281 L 324 140.863281 Z M 324 39.332031 "/></clipPath><clipPath id="8a62fe8255"><path d="M 378.171875 102.511719 C 378.171875 95.976562 376.855469 90.597656 374.1875 86.335938 C 371.515625 82.074219 367.253906 79.921875 361.359375 79.921875 C 355.382812 79.921875 351.039062 82.074219 348.25 86.414062 C 345.460938 90.757812 344.105469 96.136719 344.105469 102.671875 C 344.105469 108.925781 345.539062 114.304688 348.449219 118.804688 C 351.359375 123.308594 355.621094 125.539062 361.316406 125.539062 C 367.292969 125.539062 371.597656 123.386719 374.1875 119.085938 C 376.777344 114.78125 378.128906 109.246094 378.128906 102.550781 M 378.410156 138.367188 L 378.410156 129.246094 L 378.128906 129.246094 C 373.828125 136.574219 366.617188 140.28125 356.496094 140.28125 C 346.296875 140.28125 338.410156 136.574219 332.871094 129.125 C 327.332031 121.675781 324.542969 112.671875 324.542969 102.113281 C 324.542969 91.835938 327.332031 83.109375 332.871094 75.9375 C 338.410156 68.765625 346.179688 65.179688 356.097656 65.179688 C 360.402344 65.179688 364.464844 66.097656 368.289062 67.929688 C 372.113281 69.761719 375.101562 72.390625 377.332031 75.777344 L 377.175781 75.777344 L 377.453125 75.777344 L 377.453125 39.960938 L 397.015625 39.960938 L 397.015625 138.328125 Z M 378.410156 138.367188 "/></clipPath><clipPath id="15bc7237b1"><path d="M 0.480469 0.839844 L 73.199219 0.839844 L 73.199219 101.398438 L 0.480469 101.398438 Z M 0.480469 0.839844 "/></clipPath><clipPath id="abc91b4f8f"><path d="M 54.171875 63.511719 C 54.171875 56.976562 52.855469 51.597656 50.1875 47.335938 C 47.515625 43.074219 43.253906 40.921875 37.359375 40.921875 C 31.382812 40.921875 27.039062 43.074219 24.25 47.414062 C 21.460938 51.757812 20.105469 57.136719 20.105469 63.671875 C 20.105469 69.925781 21.539062 75.304688 24.449219 79.804688 C 27.359375 84.308594 31.621094 86.539062 37.316406 86.539062 C 43.292969 86.539062 47.597656 84.386719 50.1875 80.085938 C 52.777344 75.78125 54.128906 70.246094 54.128906 63.550781 M 54.410156 99.367188 L 54.410156 90.246094 L 54.128906 90.246094 C 49.828125 97.574219 42.617188 101.28125 32.496094 101.28125 C 22.296875 101.28125 14.410156 97.574219 8.871094 90.125 C 3.332031 82.675781 0.542969 73.671875 0.542969 63.113281 C 0.542969 52.835938 3.332031 44.109375 8.871094 36.9375 C 14.410156 29.765625 22.179688 26.179688 32.097656 26.179688 C 36.402344 26.179688 40.464844 27.097656 44.289062 28.929688 C 48.113281 30.761719 51.101562 33.390625 53.332031 36.777344 L 53.175781 36.777344 L 53.453125 36.777344 L 53.453125 0.960938 L 73.015625 0.960938 L 73.015625 99.328125 Z M 54.410156 99.367188 "/></clipPath><clipPath id="0ac730ad14"><rect x="0" width="74" y="0" height="102"/></clipPath><clipPath id="a2f5d96570"><path d="M 397 65 L 467 65 L 467 140.863281 L 397 140.863281 Z M 397 65 "/></clipPath><clipPath id="2d3484a7b7"><path d="M 444.464844 110.796875 L 444.464844 103.46875 C 443.75 104.105469 442.671875 104.703125 441.277344 105.179688 C 439.882812 105.660156 438.648438 106.015625 437.492188 106.214844 C 436.339844 106.414062 434.746094 106.65625 432.753906 106.894531 C 430.761719 107.132812 429.207031 107.410156 428.210938 107.570312 C 424.546875 108.328125 421.675781 109.445312 419.644531 110.957031 C 417.613281 112.472656 416.617188 114.824219 416.617188 118.050781 C 416.617188 124.105469 420.601562 127.132812 428.609375 127.132812 C 439.167969 127.132812 444.464844 121.675781 444.464844 110.71875 M 418.847656 88.964844 L 399.285156 88.964844 C 399.84375 80.519531 403.269531 74.421875 409.566406 70.71875 C 415.859375 67.011719 423.589844 65.140625 432.792969 65.140625 C 453.628906 65.140625 464.066406 71.875 464.066406 85.378906 L 464.066406 122.433594 C 464.066406 130.320312 464.902344 135.621094 466.539062 138.289062 L 446.695312 138.289062 C 445.859375 135.738281 445.421875 133.429688 445.300781 131.394531 C 439.683594 137.292969 431.714844 140.199219 421.316406 140.199219 C 414.148438 140.199219 408.328125 138.367188 403.828125 134.742188 C 399.324219 131.117188 397.09375 125.820312 397.09375 118.847656 C 397.09375 114.980469 397.773438 111.675781 399.085938 108.925781 C 400.402344 106.175781 402.3125 104.027344 404.824219 102.511719 C 407.332031 100.996094 409.804688 99.84375 412.3125 99.085938 C 414.824219 98.328125 417.851562 97.691406 421.316406 97.210938 C 422.59375 97.011719 424.265625 96.8125 426.296875 96.613281 C 428.332031 96.414062 429.964844 96.175781 431.199219 95.976562 C 432.433594 95.777344 433.828125 95.578125 435.421875 95.300781 C 437.015625 95.019531 438.25 94.703125 439.207031 94.34375 C 440.164062 93.984375 441.078125 93.507812 441.957031 92.910156 C 442.832031 92.3125 443.46875 91.59375 443.867188 90.757812 C 444.265625 89.921875 444.503906 88.964844 444.503906 87.851562 C 444.503906 83.984375 443.390625 81.4375 441.199219 80.121094 C 439.007812 78.804688 435.859375 78.207031 431.835938 78.207031 C 423.828125 78.207031 419.523438 81.792969 418.886719 88.964844 "/></clipPath><clipPath id="4c488e2978"><path d="M 0 0.0390625 L 69.558594 0.0390625 L 69.558594 75.398438 L 0 75.398438 Z M 0 0.0390625 "/></clipPath><clipPath id="30f545e373"><path d="M 47.464844 45.796875 L 47.464844 38.46875 C 46.75 39.105469 45.671875 39.703125 44.277344 40.179688 C 42.882812 40.660156 41.648438 41.015625 40.492188 41.214844 C 39.339844 41.414062 37.746094 41.65625 35.753906 41.894531 C 33.761719 42.132812 32.207031 42.410156 31.210938 42.570312 C 27.546875 43.328125 24.675781 44.445312 22.644531 45.957031 C 20.613281 47.472656 19.617188 49.824219 19.617188 53.050781 C 19.617188 59.105469 23.601562 62.132812 31.609375 62.132812 C 42.167969 62.132812 47.464844 56.675781 47.464844 45.71875 M 21.847656 23.964844 L 2.285156 23.964844 C 2.84375 15.519531 6.269531 9.421875 12.566406 5.71875 C 18.859375 2.011719 26.589844 0.140625 35.792969 0.140625 C 56.628906 0.140625 67.066406 6.875 67.066406 20.378906 L 67.066406 57.433594 C 67.066406 65.320312 67.902344 70.621094 69.539062 73.289062 L 49.695312 73.289062 C 48.859375 70.738281 48.421875 68.429688 48.300781 66.394531 C 42.683594 72.292969 34.714844 75.199219 24.316406 75.199219 C 17.148438 75.199219 11.328125 73.367188 6.828125 69.742188 C 2.324219 66.117188 0.09375 60.820312 0.09375 53.847656 C 0.09375 49.980469 0.773438 46.675781 2.085938 43.925781 C 3.402344 41.175781 5.3125 39.027344 7.824219 37.511719 C 10.332031 35.996094 12.804688 34.84375 15.3125 34.085938 C 17.824219 33.328125 20.851562 32.691406 24.316406 32.210938 C 25.59375 32.011719 27.265625 31.8125 29.296875 31.613281 C 31.332031 31.414062 32.964844 31.175781 34.199219 30.976562 C 35.433594 30.777344 36.828125 30.578125 38.421875 30.300781 C 40.015625 30.019531 41.25 29.703125 42.207031 29.34375 C 43.164062 28.984375 44.078125 28.507812 44.957031 27.910156 C 45.832031 27.3125 46.46875 26.59375 46.867188 25.757812 C 47.265625 24.921875 47.503906 23.964844 47.503906 22.851562 C 47.503906 18.984375 46.390625 16.4375 44.199219 15.121094 C 42.007812 13.804688 38.859375 13.207031 34.835938 13.207031 C 26.828125 13.207031 22.523438 16.792969 21.886719 23.964844 "/></clipPath><clipPath id="8183cb37a7"><rect x="0" width="70" y="0" height="76"/></clipPath><clipPath id="aa770fde15"><path d="M 466.027344 65 L 539.128906 65 L 539.128906 164 L 466.027344 164 Z M 466.027344 65 "/></clipPath><clipPath id="dcaf04f322"><path d="M 502.472656 125.539062 C 508.449219 125.539062 512.753906 123.386719 515.421875 119.125 C 518.09375 114.863281 519.40625 109.445312 519.40625 102.949219 C 519.40625 96.535156 518.011719 91.078125 515.222656 86.613281 C 512.433594 82.152344 508.132812 79.921875 502.355469 79.921875 C 496.378906 79.921875 492.074219 82.113281 489.40625 86.535156 C 486.738281 90.957031 485.421875 96.414062 485.421875 102.949219 C 485.421875 109.363281 486.816406 114.742188 489.566406 119.085938 C 492.316406 123.429688 496.65625 125.539062 502.515625 125.539062 M 466.539062 163.429688 L 466.539062 67.09375 L 485.144531 67.09375 L 485.144531 76.214844 L 485.421875 76.214844 C 489.925781 68.847656 496.976562 65.179688 506.65625 65.179688 C 517.214844 65.179688 525.261719 68.847656 530.761719 76.136719 C 536.257812 83.429688 539.046875 92.550781 539.046875 103.507812 C 539.046875 113.707031 536.300781 122.390625 530.839844 129.5625 C 525.382812 136.734375 517.695312 140.320312 507.773438 140.320312 C 503.46875 140.320312 499.40625 139.402344 495.582031 137.570312 C 491.757812 135.738281 488.730469 133.070312 486.417969 129.5625 L 486.058594 129.5625 L 486.058594 163.46875 Z M 466.539062 163.429688 "/></clipPath><clipPath id="1ce537b76f"><path d="M 0.320312 0.0390625 L 73.128906 0.0390625 L 73.128906 98.679688 L 0.320312 98.679688 Z M 0.320312 0.0390625 "/></clipPath><clipPath id="53584136ad"><path d="M 36.472656 60.539062 C 42.449219 60.539062 46.753906 58.386719 49.421875 54.125 C 52.09375 49.863281 53.40625 44.445312 53.40625 37.949219 C 53.40625 31.535156 52.011719 26.078125 49.222656 21.613281 C 46.433594 17.152344 42.132812 14.921875 36.355469 14.921875 C 30.378906 14.921875 26.074219 17.113281 23.40625 21.535156 C 20.738281 25.957031 19.421875 31.414062 19.421875 37.949219 C 19.421875 44.363281 20.816406 49.742188 23.566406 54.085938 C 26.316406 58.429688 30.65625 60.539062 36.515625 60.539062 M 0.539062 98.429688 L 0.539062 2.09375 L 19.144531 2.09375 L 19.144531 11.214844 L 19.421875 11.214844 C 23.925781 3.847656 30.976562 0.179688 40.65625 0.179688 C 51.214844 0.179688 59.261719 3.847656 64.761719 11.136719 C 70.257812 18.429688 73.046875 27.550781 73.046875 38.507812 C 73.046875 48.707031 70.300781 57.390625 64.839844 64.5625 C 59.382812 71.734375 51.695312 75.320312 41.773438 75.320312 C 37.46875 75.320312 33.40625 74.402344 29.582031 72.570312 C 25.757812 70.738281 22.730469 68.070312 20.417969 64.5625 L 20.058594 64.5625 L 20.058594 98.46875 Z M 0.539062 98.429688 "/></clipPath><clipPath id="5419146e09"><rect x="0" width="74" y="0" height="99"/></clipPath><clipPath id="30a28e8275"><path d="M 533.035156 45.421875 L 579.738281 45.421875 L 579.738281 139.847656 L 533.035156 139.847656 Z M 533.035156 45.421875 "/></clipPath><clipPath id="60ddd475fe"><path d="M 564.785156 45.738281 L 564.785156 67.09375 L 579.128906 67.09375 L 579.128906 80.199219 L 564.785156 80.199219 L 564.785156 115.460938 C 564.785156 118.765625 565.34375 120.957031 566.457031 122.074219 C 567.574219 123.1875 569.765625 123.746094 573.074219 123.746094 C 575.261719 123.746094 577.296875 123.546875 579.128906 123.1875 L 579.128906 138.488281 C 576.378906 138.925781 572.554688 139.164062 567.695312 139.164062 C 560.722656 139.164062 555.222656 137.96875 551.238281 135.578125 C 547.253906 133.1875 545.261719 128.726562 545.261719 122.234375 L 545.261719 80.199219 L 533.429688 80.199219 L 533.429688 67.09375 L 545.261719 67.09375 L 545.261719 45.738281 Z M 564.785156 45.738281 "/></clipPath><clipPath id="47d6c3ac94"><path d="M 0.28125 0.601562 L 46.359375 0.601562 L 46.359375 94.199219 L 0.28125 94.199219 Z M 0.28125 0.601562 "/></clipPath><clipPath id="651af4df50"><path d="M 31.785156 0.738281 L 31.785156 22.09375 L 46.128906 22.09375 L 46.128906 35.199219 L 31.785156 35.199219 L 31.785156 70.460938 C 31.785156 73.765625 32.34375 75.957031 33.457031 77.074219 C 34.574219 78.1875 36.765625 78.746094 40.074219 78.746094 C 42.261719 78.746094 44.296875 78.546875 46.128906 78.1875 L 46.128906 93.488281 C 43.378906 93.925781 39.554688 94.164062 34.695312 94.164062 C 27.722656 94.164062 22.222656 92.96875 18.238281 90.578125 C 14.253906 88.1875 12.261719 83.726562 12.261719 77.234375 L 12.261719 35.199219 L 0.429688 35.199219 L 0.429688 22.09375 L 12.261719 22.09375 L 12.261719 0.738281 Z M 31.785156 0.738281 "/></clipPath><clipPath id="33699bdea6"><rect x="0" width="47" y="0" height="95"/></clipPath><clipPath id="eb5d7f905c"><path d="M 578.691406 67.09375 L 598.25 67.09375 L 598.25 138.328125 L 578.691406 138.328125 Z M 578.691406 67.09375 "/></clipPath><clipPath id="f94543c0b0"><path d="M 0.691406 0.09375 L 20.25 0.09375 L 20.25 71.328125 L 0.691406 71.328125 Z M 0.691406 0.09375 "/></clipPath><clipPath id="31cbc785d4"><rect x="0" width="21" y="0" height="72"/></clipPath><clipPath id="4eb25c8d5c"><path d="M 598.015625 67 L 669 67 L 669 138.832031 L 598.015625 138.832031 Z M 598.015625 67 "/></clipPath><clipPath id="c88d3edeaa"><path d="M 668.53125 67.09375 L 644.425781 138.328125 L 622.675781 138.328125 L 598.292969 67.09375 L 618.808594 67.09375 L 633.828125 115.738281 L 634.109375 115.738281 L 649.128906 67.09375 Z M 668.53125 67.09375 "/></clipPath><clipPath id="3af3b73330"><path d="M 0.078125 0 L 70.640625 0 L 70.640625 71.480469 L 0.078125 71.480469 Z M 0.078125 0 "/></clipPath><clipPath id="d8232de5d7"><path d="M 70.53125 0.09375 L 46.425781 71.328125 L 24.675781 71.328125 L 0.292969 0.09375 L 20.808594 0.09375 L 35.828125 48.738281 L 36.109375 48.738281 L 51.128906 0.09375 Z M 70.53125 0.09375 "/></clipPath><clipPath id="df275afe3b"><rect x="0" width="71" y="0" height="72"/></clipPath><clipPath id="53399611c9"><path d="M 658.933594 65 L 731 65 L 731 140.863281 L 658.933594 140.863281 Z M 658.933594 65 "/></clipPath><clipPath id="7b2f2e9002"><path d="M 678.570312 95.0625 L 710.402344 95.0625 C 709.488281 89.921875 707.816406 86.097656 705.382812 83.625 C 702.953125 81.15625 699.449219 79.921875 694.828125 79.921875 C 689.328125 79.921875 685.265625 81.515625 682.714844 84.742188 C 680.164062 87.96875 678.769531 91.394531 678.570312 95.0625 M 729.964844 107.453125 L 678.570312 107.453125 C 679.128906 119.484375 684.945312 125.5 696.0625 125.5 C 699.847656 125.5 703.191406 124.542969 706.101562 122.671875 C 709.007812 120.796875 710.84375 118.648438 711.480469 116.257812 L 728.691406 116.257812 C 723.472656 132.234375 712.355469 140.242188 695.34375 140.242188 C 684.230469 140.242188 675.382812 136.773438 668.808594 129.84375 C 662.238281 122.910156 658.96875 113.867188 658.96875 102.75 C 658.96875 91.914062 662.355469 82.910156 669.089844 75.816406 C 675.820312 68.726562 684.585938 65.140625 695.34375 65.140625 C 706.9375 65.140625 715.742188 69.285156 721.878906 77.53125 C 728.015625 85.777344 730.683594 95.777344 729.925781 107.410156 "/></clipPath><clipPath id="aec4378b5c"><path d="M 0.933594 0.0390625 L 72.800781 0.0390625 L 72.800781 75.398438 L 0.933594 75.398438 Z M 0.933594 0.0390625 "/></clipPath><clipPath id="4f0a46c2b5"><path d="M 20.570312 30.0625 L 52.402344 30.0625 C 51.488281 24.921875 49.816406 21.097656 47.382812 18.625 C 44.953125 16.15625 41.449219 14.921875 36.828125 14.921875 C 31.328125 14.921875 27.265625 16.515625 24.714844 19.742188 C 22.164062 22.96875 20.769531 26.394531 20.570312 30.0625 M 71.964844 42.453125 L 20.570312 42.453125 C 21.128906 54.484375 26.945312 60.5 38.0625 60.5 C 41.847656 60.5 45.191406 59.542969 48.101562 57.671875 C 51.007812 55.796875 52.84375 53.648438 53.480469 51.257812 L 70.691406 51.257812 C 65.472656 67.234375 54.355469 75.242188 37.34375 75.242188 C 26.230469 75.242188 17.382812 71.773438 10.808594 64.84375 C 4.238281 57.910156 0.96875 48.867188 0.96875 37.75 C 0.96875 26.914062 4.355469 17.910156 11.089844 10.816406 C 17.820312 3.726562 26.585938 0.140625 37.34375 0.140625 C 48.9375 0.140625 57.742188 4.285156 63.878906 12.53125 C 70.015625 20.777344 72.683594 30.777344 71.925781 42.410156 "/></clipPath><clipPath id="fada8952e4"><rect x="0" width="73" y="0" height="76"/></clipPath><clipPath id="e0847992a5"><path d="M 303.578125 159.136719 L 394.953125 159.136719 L 394.953125 258.636719 L 303.578125 258.636719 Z M 303.578125 159.136719 "/></clipPath><clipPath id="b78f3079dc"><path d="M 303.746094 258.089844 L 303.746094 159.722656 L 325.382812 159.722656 L 325.382812 200.519531 L 363.828125 159.722656 L 390.839844 159.722656 L 352.394531 198.566406 L 394.546875 258.089844 L 367.414062 258.089844 L 337.8125 213.867188 L 325.421875 226.417969 L 325.421875 258.089844 Z M 303.746094 258.089844 "/></clipPath><clipPath id="f5ffe3ad35"><path d="M 0.601562 0.601562 L 91.558594 0.601562 L 91.558594 99.238281 L 0.601562 99.238281 Z M 0.601562 0.601562 "/></clipPath><clipPath id="23024600c3"><path d="M 0.746094 99.089844 L 0.746094 0.722656 L 22.382812 0.722656 L 22.382812 41.519531 L 60.828125 0.722656 L 87.839844 0.722656 L 49.394531 39.566406 L 91.546875 99.089844 L 64.414062 99.089844 L 34.8125 54.867188 L 22.421875 67.417969 L 22.421875 99.089844 Z M 0.746094 99.089844 "/></clipPath><clipPath id="a6775b31cc"><rect x="0" width="92" y="0" height="100"/></clipPath><clipPath id="443f5faa0e"><path d="M 394.546875 186.855469 L 414.105469 186.855469 L 414.105469 258.089844 L 394.546875 258.089844 Z M 394.546875 186.855469 "/></clipPath><clipPath id="a5a4b5610e"><path d="M 0.546875 0.855469 L 20.105469 0.855469 L 20.105469 72.089844 L 0.546875 72.089844 Z M 0.546875 0.855469 "/></clipPath><clipPath id="e13ca56bcc"><rect x="0" width="21" y="0" height="73"/></clipPath><clipPath id="a8497d15e0"><path d="M 414 165.230469 L 459.933594 165.230469 L 459.933594 259 L 414 259 Z M 414 165.230469 "/></clipPath><clipPath id="b9d91eb798"><path d="M 445.5 165.5 L 445.5 186.855469 L 459.84375 186.855469 L 459.84375 199.960938 L 445.5 199.960938 L 445.5 235.222656 C 445.5 238.527344 446.058594 240.71875 447.175781 241.835938 C 448.289062 242.949219 450.480469 243.507812 453.789062 243.507812 C 455.980469 243.507812 458.011719 243.308594 459.84375 242.949219 L 459.84375 258.25 C 457.09375 258.6875 453.269531 258.925781 448.410156 258.925781 C 441.4375 258.925781 435.941406 257.730469 431.957031 255.339844 C 427.972656 252.949219 425.980469 248.488281 425.980469 241.996094 L 425.980469 199.960938 L 414.148438 199.960938 L 414.148438 186.855469 L 425.980469 186.855469 L 425.980469 165.5 Z M 445.5 165.5 "/></clipPath><clipPath id="f507242174"><path d="M 0 0.359375 L 45.933594 0.359375 L 45.933594 93.960938 L 0 93.960938 Z M 0 0.359375 "/></clipPath><clipPath id="879a8c0786"><path d="M 31.5 0.5 L 31.5 21.855469 L 45.84375 21.855469 L 45.84375 34.960938 L 31.5 34.960938 L 31.5 70.222656 C 31.5 73.527344 32.058594 75.71875 33.175781 76.835938 C 34.289062 77.949219 36.480469 78.507812 39.789062 78.507812 C 41.980469 78.507812 44.011719 78.308594 45.84375 77.949219 L 45.84375 93.25 C 43.09375 93.6875 39.269531 93.925781 34.410156 93.925781 C 27.4375 93.925781 21.941406 92.730469 17.957031 90.339844 C 13.972656 87.949219 11.980469 83.488281 11.980469 76.996094 L 11.980469 34.960938 L 0.148438 34.960938 L 0.148438 21.855469 L 11.980469 21.855469 L 11.980469 0.5 Z M 31.5 0.5 "/></clipPath><clipPath id="2e8080e178"><rect x="0" width="46" y="0" height="94"/></clipPath><clipPath id="4e95fa4460"><path d="M 455 184.519531 L 525.929688 184.519531 L 525.929688 260.667969 L 455 260.667969 Z M 455 184.519531 "/></clipPath><clipPath id="9277d19419"><path d="M 524.90625 211.953125 L 505.742188 211.953125 C 504.464844 203.789062 499.644531 199.683594 491.277344 199.683594 C 485.582031 199.683594 481.359375 201.996094 478.648438 206.65625 C 475.941406 211.316406 474.585938 216.695312 474.585938 222.832031 C 474.585938 228.808594 475.898438 234.027344 478.53125 238.527344 C 481.160156 243.03125 485.261719 245.261719 490.878906 245.261719 C 495.304688 245.261719 498.808594 243.988281 501.476562 241.398438 C 504.148438 238.808594 505.78125 235.300781 506.417969 230.800781 L 525.304688 230.800781 C 524.109375 240.160156 520.441406 247.375 514.347656 252.433594 C 508.25 257.492188 500.441406 260.003906 491 260.003906 C 480.363281 260.003906 471.675781 256.617188 465.023438 249.804688 C 458.371094 242.992188 455.023438 234.226562 455.023438 223.46875 C 455.023438 212.074219 458.25 202.792969 464.746094 195.621094 C 471.238281 188.449219 480.125 184.863281 491.398438 184.863281 C 500.402344 184.863281 508.089844 187.214844 514.464844 191.875 C 520.839844 196.535156 524.308594 203.230469 524.863281 211.875 "/></clipPath><clipPath id="5e501a2aeb"><path d="M 0 0.800781 L 70.359375 0.800781 L 70.359375 76.160156 L 0 76.160156 Z M 0 0.800781 "/></clipPath><clipPath id="4446b09c81"><path d="M 69.90625 27.953125 L 50.742188 27.953125 C 49.464844 19.789062 44.644531 15.683594 36.277344 15.683594 C 30.582031 15.683594 26.359375 17.996094 23.648438 22.65625 C 20.941406 27.316406 19.585938 32.695312 19.585938 38.832031 C 19.585938 44.808594 20.898438 50.027344 23.53125 54.527344 C 26.160156 59.03125 30.261719 61.261719 35.878906 61.261719 C 40.304688 61.261719 43.808594 59.988281 46.476562 57.398438 C 49.148438 54.808594 50.78125 51.300781 51.417969 46.800781 L 70.304688 46.800781 C 69.109375 56.160156 65.441406 63.375 59.347656 68.433594 C 53.25 73.492188 45.441406 76.003906 36 76.003906 C 25.363281 76.003906 16.675781 72.617188 10.023438 65.804688 C 3.371094 58.992188 0.0234375 50.226562 0.0234375 39.46875 C 0.0234375 28.074219 3.25 18.792969 9.746094 11.621094 C 16.238281 4.449219 25.125 0.863281 36.398438 0.863281 C 45.402344 0.863281 53.089844 3.214844 59.464844 7.875 C 65.839844 12.535156 69.308594 19.230469 69.863281 27.875 "/></clipPath><clipPath id="5760a44225"><rect x="0" width="71" y="0" height="77"/></clipPath><clipPath id="524f6e165d"><path d="M 525 159.136719 L 592.9375 159.136719 L 592.9375 258.636719 L 525 258.636719 Z M 525 159.136719 "/></clipPath><clipPath id="7cd2091ff6"><path d="M 525.34375 258.089844 L 525.34375 159.722656 L 544.90625 159.722656 L 544.90625 196.773438 L 545.304688 196.773438 C 547.695312 192.910156 550.800781 189.960938 554.585938 187.96875 C 558.371094 185.976562 562.234375 184.941406 566.101562 184.941406 C 575.941406 184.941406 582.714844 187.414062 586.5 192.394531 C 590.285156 197.371094 592.15625 204.664062 592.15625 214.304688 L 592.15625 258.128906 L 572.59375 258.128906 L 572.59375 217.890625 C 572.59375 211.914062 571.636719 207.492188 569.6875 204.664062 C 567.734375 201.835938 564.546875 200.402344 560.042969 200.402344 C 554.707031 200.402344 550.839844 201.996094 548.492188 205.222656 C 546.140625 208.449219 544.90625 213.628906 544.90625 220.800781 L 544.90625 258.128906 Z M 525.34375 258.089844 "/></clipPath><clipPath id="d7e78421b5"><path d="M 0.121094 0.601562 L 67.320312 0.601562 L 67.320312 99.238281 L 0.121094 99.238281 Z M 0.121094 0.601562 "/></clipPath><clipPath id="9bafb2fc59"><path d="M 0.34375 99.089844 L 0.34375 0.722656 L 19.90625 0.722656 L 19.90625 37.773438 L 20.304688 37.773438 C 22.695312 33.910156 25.800781 30.960938 29.585938 28.96875 C 33.371094 26.976562 37.234375 25.941406 41.101562 25.941406 C 50.941406 25.941406 57.714844 28.414062 61.5 33.394531 C 65.285156 38.371094 67.15625 45.664062 67.15625 55.304688 L 67.15625 99.128906 L 47.59375 99.128906 L 47.59375 58.890625 C 47.59375 52.914062 46.636719 48.492188 44.6875 45.664062 C 42.734375 42.835938 39.546875 41.402344 35.042969 41.402344 C 29.707031 41.402344 25.839844 42.996094 23.492188 46.222656 C 21.140625 49.449219 19.90625 54.628906 19.90625 61.800781 L 19.90625 99.128906 Z M 0.34375 99.089844 "/></clipPath><clipPath id="7c75107912"><rect x="0" width="68" y="0" height="100"/></clipPath><clipPath id="76f7e88364"><path d="M 592 184.519531 L 664 184.519531 L 664 260.667969 L 592 260.667969 Z M 592 184.519531 "/></clipPath><clipPath id="668e8f8a3a"><path d="M 611.71875 214.824219 L 643.550781 214.824219 C 642.632812 209.683594 640.960938 205.859375 638.53125 203.390625 C 636.101562 200.917969 632.59375 199.683594 627.972656 199.683594 C 622.476562 199.683594 618.410156 201.277344 615.863281 204.503906 C 613.3125 207.730469 611.917969 211.15625 611.71875 214.824219 M 663.113281 227.214844 L 611.71875 227.214844 C 612.277344 239.246094 618.09375 245.261719 629.207031 245.261719 C 632.992188 245.261719 636.339844 244.304688 639.25 242.433594 C 642.15625 240.558594 643.988281 238.410156 644.625 236.019531 L 661.839844 236.019531 C 656.617188 251.996094 645.503906 260.003906 628.492188 260.003906 C 617.375 260.003906 608.53125 256.535156 601.957031 249.605469 C 595.382812 242.671875 592.117188 233.628906 592.117188 222.511719 C 592.117188 211.675781 595.503906 202.671875 602.234375 195.578125 C 608.96875 188.488281 617.734375 184.902344 628.492188 184.902344 C 640.085938 184.902344 648.890625 189.046875 655.023438 197.292969 C 661.160156 205.539062 663.828125 215.539062 663.074219 227.175781 "/></clipPath><clipPath id="1df78012a3"><path d="M 0.078125 0.800781 L 71.839844 0.800781 L 71.839844 76.160156 L 0.078125 76.160156 Z M 0.078125 0.800781 "/></clipPath><clipPath id="747c0c1011"><path d="M 19.71875 30.824219 L 51.550781 30.824219 C 50.632812 25.683594 48.960938 21.859375 46.53125 19.390625 C 44.101562 16.917969 40.59375 15.683594 35.972656 15.683594 C 30.476562 15.683594 26.410156 17.277344 23.863281 20.503906 C 21.3125 23.730469 19.917969 27.15625 19.71875 30.824219 M 71.113281 43.214844 L 19.71875 43.214844 C 20.277344 55.246094 26.09375 61.261719 37.207031 61.261719 C 40.992188 61.261719 44.339844 60.304688 47.25 58.433594 C 50.15625 56.558594 51.988281 54.410156 52.625 52.019531 L 69.839844 52.019531 C 64.617188 67.996094 53.503906 76.003906 36.492188 76.003906 C 25.375 76.003906 16.53125 72.535156 9.957031 65.605469 C 3.382812 58.671875 0.117188 49.628906 0.117188 38.511719 C 0.117188 27.675781 3.503906 18.671875 10.234375 11.578125 C 16.96875 4.488281 25.734375 0.902344 36.492188 0.902344 C 48.085938 0.902344 56.890625 5.046875 63.023438 13.292969 C 69.160156 21.539062 71.828125 31.539062 71.074219 43.175781 "/></clipPath><clipPath id="08aef860fb"><rect x="0" width="72" y="0" height="77"/></clipPath><clipPath id="fc0c2c7e3d"><path d="M 663 184.519531 L 731 184.519531 L 731 258.636719 L 663 258.636719 Z M 663 184.519531 "/></clipPath><clipPath id="ba14302118"><path d="M 663.234375 258.089844 L 663.234375 186.855469 L 681.839844 186.855469 L 681.839844 196.773438 L 682.238281 196.773438 C 684.628906 192.910156 687.773438 189.960938 691.679688 187.96875 C 695.582031 185.976562 699.6875 184.941406 704.03125 184.941406 C 713.871094 184.941406 720.644531 187.414062 724.429688 192.394531 C 728.214844 197.371094 730.085938 204.664062 730.085938 214.304688 L 730.085938 258.128906 L 710.523438 258.128906 L 710.523438 217.890625 C 710.523438 211.914062 709.566406 207.492188 707.617188 204.664062 C 705.664062 201.835938 702.476562 200.402344 697.972656 200.402344 C 692.636719 200.402344 688.769531 201.996094 686.417969 205.222656 C 684.070312 208.449219 682.835938 213.628906 682.835938 220.800781 L 682.835938 258.128906 Z M 663.234375 258.089844 "/></clipPath><clipPath id="2659b91ef6"><path d="M 0.121094 0.800781 L 67.320312 0.800781 L 67.320312 74.238281 L 0.121094 74.238281 Z M 0.121094 0.800781 "/></clipPath><clipPath id="9b27591ca5"><path d="M 0.234375 74.089844 L 0.234375 2.855469 L 18.839844 2.855469 L 18.839844 12.773438 L 19.238281 12.773438 C 21.628906 8.910156 24.773438 5.960938 28.679688 3.96875 C 32.582031 1.976562 36.6875 0.941406 41.03125 0.941406 C 50.871094 0.941406 57.644531 3.414062 61.429688 8.394531 C 65.214844 13.371094 67.085938 20.664062 67.085938 30.304688 L 67.085938 74.128906 L 47.523438 74.128906 L 47.523438 33.890625 C 47.523438 27.914062 46.566406 23.492188 44.617188 20.664062 C 42.664062 17.835938 39.476562 16.402344 34.972656 16.402344 C 29.636719 16.402344 25.769531 17.996094 23.417969 21.222656 C 21.070312 24.449219 19.835938 29.628906 19.835938 36.800781 L 19.835938 74.128906 Z M 0.234375 74.089844 "/></clipPath><clipPath id="f79378bcdd"><rect x="0" width="68" y="0" height="75"/></clipPath><clipPath id="a9e10f4920"><path d="M 394 159.136719 L 414.246094 159.136719 L 414.246094 176 L 394 176 Z M 394 159.136719 "/></clipPath><clipPath id="5b0ee968e2"><path d="M 400.679688 159.722656 L 394.546875 175.859375 L 414.105469 175.859375 L 408.089844 159.722656 Z M 400.679688 159.722656 "/></clipPath><clipPath id="8303e27ee2"><path d="M 0.320312 0.601562 L 20.238281 0.601562 L 20.238281 16.921875 L 0.320312 16.921875 Z M 0.320312 0.601562 "/></clipPath><clipPath id="2c1f6e19fd"><path d="M 6.679688 0.722656 L 0.546875 16.859375 L 20.105469 16.859375 L 14.089844 0.722656 Z M 6.679688 0.722656 "/></clipPath><clipPath id="57cd6e4799"><rect x="0" width="21" y="0" height="17"/></clipPath><clipPath id="67025968dc"><path d="M 578 39.332031 L 599 39.332031 L 599 56.59375 L 578 56.59375 Z M 578 39.332031 "/></clipPath><clipPath id="491630c546"><path d="M 584.824219 39.960938 L 578.691406 56.097656 L 598.25 56.097656 L 592.234375 39.960938 Z M 584.824219 39.960938 "/></clipPath><clipPath id="d64d43cd09"><path d="M 0.640625 0.839844 L 20.320312 0.839844 L 20.320312 17.160156 L 0.640625 17.160156 Z M 0.640625 0.839844 "/></clipPath><clipPath id="be8286c8d7"><path d="M 6.824219 0.960938 L 0.691406 17.097656 L 20.25 17.097656 L 14.234375 0.960938 Z M 6.824219 0.960938 "/></clipPath><clipPath id="c79112a00f"><rect x="0" width="21" y="0" height="18"/></clipPath></defs><g id="ac4142ecf9"><rect x="0" width="750" y="0" height="299.999988" style="fill:#ffffff;fill-opacity:1;stroke:none;"/><rect x="0" width="750" y="0" height="299.999988" style="fill:#d9d9d9;fill-opacity:1;stroke:none;"/><g clip-rule="nonzero" clip-path="url(#2bff3c2c16)"><g clip-rule="nonzero" clip-path="url(#18abcdabcf)"><g transform="matrix(1,0,0,1,127,39)"><g clip-path="url(#ee798a8465)"><g clip-rule="nonzero" clip-path="url(#b6ce2d20a2)"><g clip-rule="nonzero" clip-path="url(#dfea128d90)"><rect x="0" width="108" height="220" y="0" style="fill:#ffffff;fill-opacity:1;stroke:none;"/></g></g></g></g></g></g><g clip-rule="nonzero" clip-path="url(#49028f863f)"><g clip-rule="nonzero" clip-path="url(#fc231a3ec5)"><g transform="matrix(1,0,0,1,19,39)"><g clip-path="url(#9ca8a1fba9)"><g clip-rule="nonzero" clip-path="url(#f65f088543)"><g clip-rule="nonzero" clip-path="url(#a10b89c373)"><rect x="0" width="109" height="220" y="0" style="fill:#ffffff;fill-opacity:1;stroke:none;"/></g></g></g></g></g></g><g clip-rule="nonzero" clip-path="url(#2b640cdce2)"><g clip-rule="nonzero" clip-path="url(#36b98913e0)"><g transform="matrix(1,0,0,1,238,40)"><g clip-path="url(#d70c3bad9c)"><g clip-rule="nonzero" clip-path="url(#364c5b8f23)"><g clip-rule="nonzero" clip-path="url(#e46dfd9dff)"><rect x="0" width="97" height="99" y="0" style="fill:#ffffff;fill-opacity:1;stroke:none;"/></g></g></g></g></g></g><g clip-rule="nonzero" clip-path="url(#2aa697ee3a)"><g clip-rule="nonzero" clip-path="url(#8a62fe8255)"><g transform="matrix(1,0,0,1,324,39)"><g clip-path="url(#0ac730ad14)"><g clip-rule="nonzero" clip-path="url(#15bc7237b1)"><g clip-rule="nonzero" clip-path="url(#abc91b4f8f)"><rect x="0" width="74" height="102" y="0" style="fill:#ffffff;fill-opacity:1;stroke:none;"/></g></g></g></g></g></g><g clip-rule="nonzero" clip-path="url(#a2f5d96570)"><g clip-rule="nonzero" clip-path="url(#2d3484a7b7)"><g transform="matrix(1,0,0,1,397,65)"><g clip-path="url(#8183cb37a7)"><g clip-rule="nonzero" clip-path="url(#4c488e2978)"><g clip-rule="nonzero" clip-path="url(#30f545e373)"><rect x="0" width="70" height="76" y="0" style="fill:#ffffff;fill-opacity:1;stroke:none;"/></g></g></g></g></g></g><g clip-rule="nonzero" clip-path="url(#aa770fde15)"><g clip-rule="nonzero" clip-path="url(#dcaf04f322)"><g transform="matrix(1,0,0,1,466,65)"><g clip-path="url(#5419146e09)"><g clip-rule="nonzero" clip-path="url(#1ce537b76f)"><g clip-rule="nonzero" clip-path="url(#53584136ad)"><rect x="0" width="74" height="99" y="0" style="fill:#ffffff;fill-opacity:1;stroke:none;"/></g></g></g></g></g></g><g clip-rule="nonzero" clip-path="url(#30a28e8275)"><g clip-rule="nonzero" clip-path="url(#60ddd475fe)"><g transform="matrix(1,0,0,1,533,45)"><g clip-path="url(#33699bdea6)"><g clip-rule="nonzero" clip-path="url(#47d6c3ac94)"><g clip-rule="nonzero" clip-path="url(#651af4df50)"><rect x="0" width="47" height="95" y="0" style="fill:#ffffff;fill-opacity:1;stroke:none;"/></g></g></g></g></g></g><g clip-rule="nonzero" clip-path="url(#eb5d7f905c)"><g transform="matrix(1,0,0,1,578,67)"><g clip-path="url(#31cbc785d4)"><g clip-rule="nonzero" clip-path="url(#f94543c0b0)"><rect x="0" width="21" height="72" y="0" style="fill:#ffffff;fill-opacity:1;stroke:none;"/></g></g></g></g><g clip-rule="nonzero" clip-path="url(#4eb25c8d5c)"><g clip-rule="nonzero" clip-path="url(#c88d3edeaa)"><g transform="matrix(1,0,0,1,598,67)"><g clip-path="url(#df275afe3b)"><g clip-rule="nonzero" clip-path="url(#3af3b73330)"><g clip-rule="nonzero" clip-path="url(#d8232de5d7)"><rect x="0" width="71" height="72" y="0" style="fill:#ffffff;fill-opacity:1;stroke:none;"/></g></g></g></g></g></g><g clip-rule="nonzero" clip-path="url(#53399611c9)"><g clip-rule="nonzero" clip-path="url(#7b2f2e9002)"><g transform="matrix(1,0,0,1,658,65)"><g clip-path="url(#fada8952e4)"><g clip-rule="nonzero" clip-path="url(#aec4378b5c)"><g clip-rule="nonzero" clip-path="url(#4f0a46c2b5)"><rect x="0" width="73" height="76" y="0" style="fill:#ffffff;fill-opacity:1;stroke:none;"/></g></g></g></g></g></g><g clip-rule="nonzero" clip-path="url(#e0847992a5)"><g clip-rule="nonzero" clip-path="url(#b78f3079dc)"><g transform="matrix(1,0,0,1,303,159)"><g clip-path="url(#a6775b31cc)"><g clip-rule="nonzero" clip-path="url(#f5ffe3ad35)"><g clip-rule="nonzero" clip-path="url(#23024600c3)"><rect x="0" width="92" height="100" y="0" style="fill:#ffffff;fill-opacity:1;stroke:none;"/></g></g></g></g></g></g><g clip-rule="nonzero" clip-path="url(#443f5faa0e)"><g transform="matrix(1,0,0,1,394,186)"><g clip-path="url(#e13ca56bcc)"><g clip-rule="nonzero" clip-path="url(#a5a4b5610e)"><rect x="0" width="21" height="73" y="0" style="fill:#ffffff;fill-opacity:1;stroke:none;"/></g></g></g></g><g clip-rule="nonzero" clip-path="url(#a8497d15e0)"><g clip-rule="nonzero" clip-path="url(#b9d91eb798)"><g transform="matrix(1,0,0,1,414,165)"><g clip-path="url(#2e8080e178)"><g clip-rule="nonzero" clip-path="url(#f507242174)"><g clip-rule="nonzero" clip-path="url(#879a8c0786)"><rect x="0" width="46" height="94" y="0" style="fill:#ffffff;fill-opacity:1;stroke:none;"/></g></g></g></g></g></g><g clip-rule="nonzero" clip-path="url(#4e95fa4460)"><g clip-rule="nonzero" clip-path="url(#9277d19419)"><g transform="matrix(1,0,0,1,455,184)"><g clip-path="url(#5760a44225)"><g clip-rule="nonzero" clip-path="url(#5e501a2aeb)"><g clip-rule="nonzero" clip-path="url(#4446b09c81)"><rect x="0" width="71" height="77" y="0" style="fill:#ffffff;fill-opacity:1;stroke:none;"/></g></g></g></g></g></g><g clip-rule="nonzero" clip-path="url(#524f6e165d)"><g clip-rule="nonzero" clip-path="url(#7cd2091ff6)"><g transform="matrix(1,0,0,1,525,159)"><g clip-path="url(#7c75107912)"><g clip-rule="nonzero" clip-path="url(#d7e78421b5)"><g clip-rule="nonzero" clip-path="url(#9bafb2fc59)"><rect x="0" width="68" height="100" y="0" style="fill:#ffffff;fill-opacity:1;stroke:none;"/></g></g></g></g></g></g><g clip-rule="nonzero" clip-path="url(#76f7e88364)"><g clip-rule="nonzero" clip-path="url(#668e8f8a3a)"><g transform="matrix(1,0,0,1,592,184)"><g clip-path="url(#08aef860fb)"><g clip-rule="nonzero" clip-path="url(#1df78012a3)"><g clip-rule="nonzero" clip-path="url(#747c0c1011)"><rect x="0" width="72" height="77" y="0" style="fill:#ffffff;fill-opacity:1;stroke:none;"/></g></g></g></g></g></g><g clip-rule="nonzero" clip-path="url(#fc0c2c7e3d)"><g clip-rule="nonzero" clip-path="url(#ba14302118)"><g transform="matrix(1,0,0,1,663,184)"><g clip-path="url(#f79378bcdd)"><g clip-rule="nonzero" clip-path="url(#2659b91ef6)"><g clip-rule="nonzero" clip-path="url(#9b27591ca5)"><rect x="0" width="68" height="75" y="0" style="fill:#ffffff;fill-opacity:1;stroke:none;"/></g></g></g></g></g></g><g clip-rule="nonzero" clip-path="url(#a9e10f4920)"><g clip-rule="nonzero" clip-path="url(#5b0ee968e2)"><g transform="matrix(1,0,0,1,394,159)"><g clip-path="url(#57cd6e4799)"><g clip-rule="nonzero" clip-path="url(#8303e27ee2)"><g clip-rule="nonzero" clip-path="url(#2c1f6e19fd)"><rect x="0" width="21" height="17" y="0" style="fill:#ffffff;fill-opacity:1;stroke:none;"/></g></g></g></g></g></g><g clip-rule="nonzero" clip-path="url(#67025968dc)"><g clip-rule="nonzero" clip-path="url(#491630c546)"><g transform="matrix(1,0,0,1,578,39)"><g clip-path="url(#c79112a00f)"><g clip-rule="nonzero" clip-path="url(#d64d43cd09)"><g clip-rule="nonzero" clip-path="url(#be8286c8d7)"><rect x="0" width="21" height="18" y="0" style="fill:#ffffff;fill-opacity:1;stroke:none;"/></g></g></g></g></g></g></g></svg>